<svg xmlns="http://www.w3.org/2000/svg" xmlns:xlink="http://www.w3.org/1999/xlink" width="400" zoomAndPan="magnify" viewBox="0 0 300 60" height="80" preserveAspectRatio="xMidYMid meet" version="1.2"><defs/><g id="6f2e40c792"><g style="fill:#000000;fill-opacity:1;"><g transform="translate(13.906428, 52.50834)"><path style="stroke:none" d="M 34.0625 -47.640625 L 34.0625 -15.203125 C 34.0625 -10.179688 32.644531 -6.3125 29.8125 -3.59375 C 26.988281 -0.882812 23.179688 0.46875 18.390625 0.46875 C 13.367188 0.46875 9.34375 -0.953125 6.3125 -3.796875 C 3.28125 -6.648438 1.765625 -10.703125 1.765625 -15.953125 L 13.296875 -15.953125 C 13.296875 -13.960938 13.703125 -12.457031 14.515625 -11.4375 C 15.335938 -10.414062 16.515625 -9.90625 18.046875 -9.90625 C 19.453125 -9.90625 20.539062 -10.359375 21.3125 -11.265625 C 22.082031 -12.171875 22.46875 -13.484375 22.46875 -15.203125 L 22.46875 -47.640625 Z M 34.0625 -47.640625 "/></g></g><g style="fill:#000000;fill-opacity:1;"><g transform="translate(56.653301, 52.50834)"><path style="stroke:none" d="M 27.484375 -38.265625 C 31.828125 -38.265625 35.3125 -36.828125 37.9375 -33.953125 C 40.5625 -31.085938 41.875 -27.144531 41.875 -22.125 L 41.875 0 L 30.328125 0 L 30.328125 -20.5625 C 30.328125 -23.09375 29.671875 -25.054688 28.359375 -26.453125 C 27.046875 -27.859375 25.285156 -28.5625 23.078125 -28.5625 C 20.859375 -28.5625 19.09375 -27.859375 17.78125 -26.453125 C 16.46875 -25.054688 15.8125 -23.09375 15.8125 -20.5625 L 15.8125 0 L 4.203125 0 L 4.203125 -50.21875 L 15.8125 -50.21875 L 15.8125 -32.78125 C 16.988281 -34.445312 18.59375 -35.773438 20.625 -36.765625 C 22.664062 -37.765625 24.953125 -38.265625 27.484375 -38.265625 Z M 27.484375 -38.265625 "/></g></g><g style="fill:#000000;fill-opacity:1;"><g transform="translate(105.913912, 52.50834)"><path style="stroke:none" d="M 39.90625 -19.546875 C 39.90625 -18.460938 39.835938 -17.332031 39.703125 -16.15625 L 13.4375 -16.15625 C 13.613281 -13.800781 14.367188 -12 15.703125 -10.75 C 17.046875 -9.507812 18.6875 -8.890625 20.625 -8.890625 C 23.519531 -8.890625 25.535156 -10.109375 26.671875 -12.546875 L 39.015625 -12.546875 C 38.378906 -10.066406 37.234375 -7.828125 35.578125 -5.828125 C 33.929688 -3.835938 31.863281 -2.273438 29.375 -1.140625 C 26.894531 -0.015625 24.113281 0.546875 21.03125 0.546875 C 17.320312 0.546875 14.019531 -0.242188 11.125 -1.828125 C 8.226562 -3.410156 5.96875 -5.671875 4.34375 -8.609375 C 2.71875 -11.554688 1.90625 -15 1.90625 -18.9375 C 1.90625 -22.875 2.707031 -26.3125 4.3125 -29.25 C 5.914062 -32.1875 8.164062 -34.445312 11.0625 -36.03125 C 13.957031 -37.613281 17.28125 -38.40625 21.03125 -38.40625 C 24.695312 -38.40625 27.953125 -37.632812 30.796875 -36.09375 C 33.648438 -34.5625 35.878906 -32.367188 37.484375 -29.515625 C 39.097656 -26.671875 39.90625 -23.347656 39.90625 -19.546875 Z M 28.03125 -22.59375 C 28.03125 -24.582031 27.347656 -26.164062 25.984375 -27.34375 C 24.628906 -28.519531 22.9375 -29.109375 20.90625 -29.109375 C 18.957031 -29.109375 17.316406 -28.539062 15.984375 -27.40625 C 14.648438 -26.28125 13.820312 -24.675781 13.5 -22.59375 Z M 28.03125 -22.59375 "/></g></g><g style="fill:#000000;fill-opacity:1;"><g transform="translate(151.23914, 52.50834)"><path style="stroke:none" d="M 52.515625 -38.265625 C 57.222656 -38.265625 60.96875 -36.835938 63.75 -33.984375 C 66.53125 -31.140625 67.921875 -27.1875 67.921875 -22.125 L 67.921875 0 L 56.390625 0 L 56.390625 -20.5625 C 56.390625 -23 55.742188 -24.882812 54.453125 -26.21875 C 53.160156 -27.5625 51.382812 -28.234375 49.125 -28.234375 C 46.863281 -28.234375 45.085938 -27.5625 43.796875 -26.21875 C 42.515625 -24.882812 41.875 -23 41.875 -20.5625 L 41.875 0 L 30.328125 0 L 30.328125 -20.5625 C 30.328125 -23 29.679688 -24.882812 28.390625 -26.21875 C 27.109375 -27.5625 25.335938 -28.234375 23.078125 -28.234375 C 20.804688 -28.234375 19.023438 -27.5625 17.734375 -26.21875 C 16.453125 -24.882812 15.8125 -23 15.8125 -20.5625 L 15.8125 0 L 4.203125 0 L 4.203125 -37.859375 L 15.8125 -37.859375 L 15.8125 -33.109375 C 16.988281 -34.691406 18.523438 -35.945312 20.421875 -36.875 C 22.328125 -37.800781 24.476562 -38.265625 26.875 -38.265625 C 29.71875 -38.265625 32.257812 -37.65625 34.5 -36.4375 C 36.738281 -35.21875 38.492188 -33.476562 39.765625 -31.21875 C 41.078125 -33.300781 42.863281 -34.992188 45.125 -36.296875 C 47.382812 -37.609375 49.847656 -38.265625 52.515625 -38.265625 Z M 52.515625 -38.265625 "/></g></g><g style="fill:#000000;fill-opacity:1;"><g transform="translate(226.62256, 52.50834)"><path style="stroke:none" d="M 1.90625 -19 C 1.90625 -22.894531 2.640625 -26.3125 4.109375 -29.25 C 5.578125 -32.1875 7.578125 -34.445312 10.109375 -36.03125 C 12.640625 -37.613281 15.46875 -38.40625 18.59375 -38.40625 C 21.257812 -38.40625 23.597656 -37.863281 25.609375 -36.78125 C 27.628906 -35.695312 29.179688 -34.269531 30.265625 -32.5 L 30.265625 -37.859375 L 41.875 -37.859375 L 41.875 0 L 30.265625 0 L 30.265625 -5.359375 C 29.128906 -3.597656 27.554688 -2.171875 25.546875 -1.078125 C 23.535156 0.00390625 21.195312 0.546875 18.53125 0.546875 C 15.445312 0.546875 12.640625 -0.253906 10.109375 -1.859375 C 7.578125 -3.472656 5.578125 -5.757812 4.109375 -8.71875 C 2.640625 -11.6875 1.90625 -15.113281 1.90625 -19 Z M 30.265625 -18.9375 C 30.265625 -21.832031 29.460938 -24.113281 27.859375 -25.78125 C 26.253906 -27.457031 24.296875 -28.296875 21.984375 -28.296875 C 19.679688 -28.296875 17.722656 -27.46875 16.109375 -25.8125 C 14.503906 -24.164062 13.703125 -21.894531 13.703125 -19 C 13.703125 -16.101562 14.503906 -13.804688 16.109375 -12.109375 C 17.722656 -10.410156 19.679688 -9.5625 21.984375 -9.5625 C 24.296875 -9.5625 26.253906 -10.398438 27.859375 -12.078125 C 29.460938 -13.753906 30.265625 -16.039062 30.265625 -18.9375 Z M 30.265625 -18.9375 "/></g></g></g></svg>